# Blender v2.78 (sub 0) OBJ File: ''
# www.blender.org
mtllib test.mtl
o Cylinder_1_1_Cylinder_1_1_Propeller
v 0.162695 2.283333 -0.365418
v 0.346410 2.283333 -0.200000
v 0.000000 2.283333 0.000000
v 0.162695 2.750000 -0.365418
v -0.083165 2.283333 -0.391259
v -0.083165 2.750000 -0.391259
v -0.297258 2.283333 -0.267652
v -0.397809 2.283333 -0.041811
v -0.297258 2.750000 -0.267652
v -0.346410 2.283333 0.200000
v -0.346410 2.750000 0.200000
v -0.162695 2.283333 0.365419
v 0.397809 2.750000 0.041812
v 0.297258 2.283333 0.267653
v 0.397809 2.283333 0.041812
v 0.083165 2.283333 0.391259
v 0.083165 2.750000 0.391259
v 0.297258 2.750000 0.267653
v 0.346410 2.750000 -0.200000
v -0.397809 2.750000 -0.041811
v -0.162695 2.750000 0.365419
vt 0.0955 0.7939
vt 0.0000 0.5000
vt 0.5000 0.5000
vt 0.1000 1.0000
vt 0.0000 0.0000
vt 0.1000 0.0000
vt 0.3455 0.9755
vt 0.2000 1.0000
vt 0.2000 0.0000
vt 0.6545 0.9755
vt 0.3000 0.0000
vt 0.9045 0.7939
vt 0.4000 0.0000
vt 0.3000 1.0000
vt 1.0000 0.5000
vt 0.5000 1.0000
vt 0.5000 0.0000
vt 0.9045 0.2061
vt 0.6000 0.0000
vt 0.9000 1.0000
vt 0.8000 0.0000
vt 0.9000 0.0000
vt 0.6545 0.0245
vt 0.7000 1.0000
vt 0.7000 0.0000
vt 0.0955 0.2061
vt 0.3455 0.0245
vt 0.8000 1.0000
vt 1.0000 1.0000
vt 1.0000 0.0000
vt 0.0955 0.7939
vt 0.9045 0.7939
vt 1.0000 0.5000
vt 0.0000 1.0000
vt 0.4000 1.0000
vt 0.6000 1.0000
vt 0.9045 0.7939
vt 0.6545 0.9755
vt 0.3455 0.9755
vt 0.0000 0.5000
vt 0.0955 0.2061
vt 0.3455 0.0245
vt 0.6545 0.0245
vn 0.0000 -1.0000 0.0000
vn 0.6691 0.0000 -0.7431
vn 0.1045 0.0000 -0.9945
vn -0.5000 0.0000 -0.8660
vn -0.9135 0.0000 -0.4067
vn -0.9781 -0.0000 0.2079
vn -0.6691 -0.0000 0.7431
vn 0.9135 -0.0000 0.4067
vn -0.1045 -0.0000 0.9945
vn 0.5000 -0.0000 0.8660
vn 0.9781 0.0000 -0.2079
vn 0.0000 1.0000 -0.0000
usemtl Propeller
s 1
f 1/1/1 2/2/1 3/3/1
f 4/4/2 2/5/2 1/6/2
f 5/7/1 1/1/1 3/3/1
f 6/8/3 1/6/3 5/9/3
f 7/10/1 5/7/1 3/3/1
f 7/11/4 6/8/4 5/9/4
f 8/12/1 7/10/1 3/3/1
f 8/13/5 9/14/5 7/11/5
f 10/15/1 8/12/1 3/3/1
f 11/16/6 8/13/6 10/17/6
f 12/18/1 10/15/1 3/3/1
f 12/19/7 11/16/7 10/17/7
f 13/20/8 14/21/8 15/22/8
f 16/23/1 12/18/1 3/3/1
f 17/24/9 12/19/9 16/25/9
f 2/2/1 15/26/1 3/3/1
f 14/27/1 16/23/1 3/3/1
f 18/28/10 16/25/10 14/21/10
f 19/29/11 15/22/11 2/30/11
f 15/26/1 14/27/1 3/3/1
f 20/31/12 13/32/12 19/33/12
f 4/4/2 19/34/2 2/5/2
f 6/8/3 4/4/3 1/6/3
f 7/11/4 9/14/4 6/8/4
f 8/13/5 20/35/5 9/14/5
f 11/16/6 20/35/6 8/13/6
f 12/19/7 21/36/7 11/16/7
f 13/20/8 18/28/8 14/21/8
f 17/24/9 21/36/9 12/19/9
f 18/28/10 17/24/10 16/25/10
f 19/29/11 13/20/11 15/22/11
f 19/33/12 4/37/12 6/38/12
f 6/38/12 9/39/12 20/31/12
f 20/31/12 11/40/12 21/41/12
f 21/41/12 17/42/12 18/43/12
f 18/43/12 13/32/12 20/31/12
f 19/33/12 6/38/12 20/31/12
f 20/31/12 21/41/12 18/43/12
o Cube.2_2_1_Cube.2_2_1_Propeller
v 0.030000 2.568628 -0.300000
v -0.289808 2.614705 -0.300000
v -0.030000 2.464705 -0.300000
v 0.289808 2.418628 -0.300000
v 0.229808 2.314705 -0.300000
v 0.506605 2.366413 -1.800000
v 0.520432 2.425150 -3.299999
v 0.527443 2.484590 -1.800000
v 0.340501 2.556230 -4.800000
v 0.333273 2.436447 -4.800000
v 0.165922 2.446547 -6.300000
v -0.003614 2.456779 -6.300000
v 0.173151 2.566329 -6.300000
v -0.173151 2.467010 -6.300000
v 0.003614 2.576561 -6.300000
v -0.333273 2.596891 -4.800000
v -0.340501 2.477109 -4.800000
v -0.520432 2.608186 -3.299999
v -0.527661 2.488402 -3.299999
v -0.527443 2.548744 -1.800000
v -0.506605 2.666921 -1.799999
v 0.010419 2.575755 -1.799999
v -0.229808 2.718628 -0.300000
v 0.003614 2.576560 -3.299999
v 0.527661 2.544935 -3.299999
v 0.003614 2.576560 -4.800000
v -0.165922 2.586792 -6.300000
v -0.003614 2.456778 -4.800000
v -0.003614 2.456776 -3.299999
v -0.010419 2.457578 -1.800000
vt 0.5000 1.0000
vt 0.0000 0.0000
vt 0.5000 0.0000
vt 1.0000 1.0000
vt 1.0000 0.0000
vt 0.2500 0.0000
vt 0.0000 1.0000
vt 0.0000 0.0000
vt 0.5000 0.0000
vt 0.2500 1.0000
vt 0.7500 1.0000
vt 0.7500 0.0000
vt 1.0000 0.0000
vt 0.5000 0.0000
vt 0.0000 1.0000
vt 0.0000 0.0000
vt 1.0000 0.0000
vt 0.5000 1.0000
vt 0.2500 1.0000
vt 0.0000 0.0000
vt 0.2500 0.0000
vt 0.5000 1.0000
vt 0.5000 0.0000
vt 0.7500 0.0000
vt 1.0000 0.0000
vt 0.7500 1.0000
vt 0.5000 0.2500
vt 0.0000 0.0000
vt 0.5000 0.0000
vt 1.0000 0.0000
vt 0.5000 0.5000
vt 0.0000 0.2500
vt 1.0000 0.5000
vt 1.0000 0.2500
vt 0.0000 0.7500
vt 0.0000 0.5000
vt 1.0000 0.7500
vt 0.5000 0.7500
vt 0.0000 1.0000
vt 1.0000 1.0000
vt 0.5000 0.2500
vt 0.5000 0.5000
vt 0.0000 0.2500
vt 1.0000 0.2500
vt 0.5000 0.7500
vt 0.0000 0.5000
vt 1.0000 0.7500
vt 1.0000 0.5000
vt 0.0000 1.0000
vt 0.0000 0.7500
vt 1.0000 1.0000
vt 0.0000 1.0000
vt 0.5000 1.0000
vt 1.0000 1.0000
vt 1.0000 1.0000
vt 0.5000 1.0000
vn 0.0000 -0.0000 1.0000
vn 0.8574 -0.4950 0.1411
vn 0.9848 -0.1736 0.0023
vn 0.9913 -0.0598 -0.1176
vn 0.9905 -0.0598 -0.1240
vn 0.9920 -0.0599 -0.1111
vn -0.0000 0.0000 -1.0000
vn -0.9920 0.0600 -0.1111
vn -0.9920 0.0599 -0.1111
vn -0.9905 0.0599 -0.1240
vn -0.9905 0.0598 -0.1240
vn -0.9982 0.0602 -0.0023
vn -0.9741 0.1718 0.1468
vn 0.5000 0.8660 -0.0024
vn 0.1736 0.9848 -0.0003
vn 0.1735 0.9840 0.0396
vn 0.0602 0.9982 0.0001
vn 0.0602 0.9982 0.0000
vn -0.0602 -0.9982 -0.0000
vn -0.0602 -0.9982 0.0001
vn -0.0602 -0.9982 0.0003
vn -0.0602 -0.9974 -0.0396
vn -0.1732 -0.9823 0.0706
vn -0.1733 -0.9827 -0.0658
vn 0.9741 -0.1718 0.1468
vn 0.9982 -0.0602 -0.0023
vn -0.9848 0.1736 0.0023
vn -0.8574 0.4950 0.1411
vn 0.1733 0.9827 -0.0658
vn 0.1732 0.9823 0.0706
vn 0.0602 0.9974 -0.0396
vn 0.0602 0.9982 0.0003
vn -0.1735 -0.9840 0.0396
vn -0.1736 -0.9848 -0.0003
vn -0.5000 -0.8660 -0.0024
usemtl Propeller
s 1
f 22/44/13 23/45/13 24/46/13
f 25/47/13 24/46/13 26/48/13
f 27/49/14 25/50/14 26/51/14
f 28/52/15 29/53/15 27/49/15
f 30/54/16 28/52/17 31/55/16
f 32/56/18 30/54/16 31/55/16
f 33/57/19 34/58/19 32/59/19
f 35/60/19 36/61/19 33/57/19
f 37/62/20 35/63/21 38/64/22
f 39/65/23 38/64/22 40/66/23
f 41/67/24 39/65/24 40/66/24
f 23/68/25 42/69/25 41/67/25
f 43/70/26 44/71/26 22/72/26
f 25/73/26 43/70/26 22/72/26
f 45/74/27 42/75/27 43/70/27
f 46/76/28 43/70/28 29/77/28
f 45/74/29 37/78/30 39/79/30
f 30/80/30 45/74/29 46/76/29
f 47/81/30 48/82/30 37/78/30
f 34/83/30 47/81/30 30/80/30
f 49/84/31 35/63/31 33/57/31
f 32/56/31 49/84/31 33/57/31
f 50/85/32 38/86/31 49/84/31
f 31/87/31 50/85/32 49/84/31
f 51/88/33 40/89/32 50/85/32
f 27/90/34 50/85/34 28/91/34
f 51/88/35 23/92/35 41/93/35
f 26/94/36 51/88/36 27/90/36
f 22/44/13 44/95/13 23/45/13
f 25/47/13 22/44/13 24/46/13
f 27/49/37 29/53/37 25/50/37
f 28/52/38 46/96/38 29/53/38
f 30/54/16 46/96/17 28/52/17
f 32/56/18 34/83/18 30/54/16
f 33/57/19 36/61/19 34/58/19
f 35/60/19 48/97/19 36/61/19
f 37/62/20 48/82/21 35/63/21
f 39/65/23 37/62/20 38/64/22
f 41/67/39 42/69/39 39/65/39
f 23/68/40 44/98/40 42/69/40
f 43/70/41 42/75/41 44/71/41
f 25/73/42 29/77/42 43/70/42
f 45/74/43 39/79/43 42/75/43
f 46/76/29 45/74/29 43/70/44
f 45/74/29 47/81/30 37/78/30
f 30/80/30 47/81/30 45/74/29
f 47/81/30 36/61/30 48/82/30
f 34/83/30 36/61/30 47/81/30
f 49/84/31 38/86/31 35/63/31
f 32/56/31 31/87/31 49/84/31
f 50/85/32 40/89/32 38/86/31
f 31/87/31 28/91/31 50/85/32
f 51/88/45 41/93/45 40/89/45
f 27/90/46 51/88/46 50/85/46
f 51/88/47 24/99/47 23/92/47
f 26/94/47 24/99/47 51/88/47
o Cube.3_2_1_Cube.3_2_1_Propeller
v -0.030000 2.568628 0.300000
v 0.289808 2.614705 0.300000
v 0.030000 2.464705 0.300000
v -0.289808 2.418628 0.300000
v -0.229808 2.314705 0.300000
v -0.506605 2.366413 1.800000
v -0.520432 2.425148 3.300000
v -0.527443 2.484590 1.800000
v -0.340501 2.556224 4.800003
v -0.333273 2.436442 4.800003
v -0.173151 2.566323 6.300003
v -0.165922 2.446541 6.300003
v 0.003614 2.456773 6.300003
v 0.173151 2.467004 6.300003
v -0.003614 2.576555 6.300003
v 0.333273 2.596886 4.800003
v 0.340501 2.477104 4.800003
v 0.520432 2.608181 3.300000
v 0.527661 2.488400 3.300000
v 0.527443 2.548743 1.800000
v 0.506605 2.666920 1.800000
v -0.010419 2.575755 1.800000
v 0.229808 2.718628 0.300000
v -0.003614 2.576555 3.300000
v -0.527661 2.544930 3.300000
v -0.003614 2.576555 4.800003
v 0.165922 2.586786 6.300003
v 0.003614 2.456773 4.800003
v 0.003614 2.456774 3.300000
v 0.010419 2.457578 1.800000
vt 0.5000 1.0000
vt 0.0000 0.0000
vt 0.5000 0.0000
vt 1.0000 1.0000
vt 1.0000 0.0000
vt 0.2500 0.0000
vt 0.0000 1.0000
vt 0.0000 0.0000
vt 0.5000 0.0000
vt 0.2500 1.0000
vt 0.7500 1.0000
vt 0.7500 0.0000
vt 1.0000 1.0000
vt 1.0000 0.0000
vt 0.5000 0.0000
vt 0.0000 1.0000
vt 0.0000 0.0000
vt 1.0000 0.0000
vt 0.5000 1.0000
vt 0.2500 1.0000
vt 0.0000 0.0000
vt 0.2500 0.0000
vt 0.5000 1.0000
vt 0.5000 0.0000
vt 0.7500 0.0000
vt 1.0000 0.0000
vt 0.7500 1.0000
vt 0.5000 0.2500
vt 0.0000 0.0000
vt 0.5000 0.0000
vt 1.0000 0.0000
vt 0.5000 0.5000
vt 0.0000 0.2500
vt 1.0000 0.5000
vt 1.0000 0.2500
vt 0.0000 0.7500
vt 0.0000 0.5000
vt 1.0000 0.7500
vt 0.5000 0.7500
vt 0.0000 1.0000
vt 0.5000 0.2500
vt 0.5000 0.5000
vt 0.0000 0.2500
vt 1.0000 0.2500
vt 0.5000 0.7500
vt 0.0000 0.5000
vt 1.0000 0.7500
vt 1.0000 0.5000
vt 0.0000 1.0000
vt 0.0000 0.7500
vt 1.0000 1.0000
vt 0.0000 1.0000
vt 0.5000 1.0000
vt 1.0000 1.0000
vt 1.0000 1.0000
vt 0.5000 1.0000
vn 0.0000 0.0000 -1.0000
vn -0.8574 -0.4950 -0.1411
vn -0.9848 -0.1736 -0.0023
vn -0.9905 -0.0599 0.1240
vn -0.9905 -0.0598 0.1240
vn -0.9920 -0.0600 0.1111
vn -0.9920 -0.0599 0.1111
vn -0.0000 0.0000 1.0000
vn 0.9920 0.0600 0.1111
vn 0.9920 0.0599 0.1111
vn 0.9905 0.0599 0.1240
vn 0.9905 0.0598 0.1240
vn 0.9982 0.0602 0.0023
vn 0.9741 0.1718 -0.1468
vn -0.5000 0.8660 0.0024
vn -0.1736 0.9848 0.0003
vn -0.1735 0.9840 -0.0396
vn -0.0602 0.9982 -0.0001
vn -0.0602 0.9982 0.0000
vn 0.0602 -0.9982 -0.0000
vn 0.0602 -0.9982 -0.0001
vn 0.0602 -0.9982 -0.0003
vn 0.0602 -0.9974 0.0396
vn 0.1732 -0.9823 -0.0706
vn 0.1733 -0.9827 0.0658
vn -0.9741 -0.1718 -0.1468
vn -0.9982 -0.0602 0.0023
vn 0.9848 0.1736 -0.0023
vn 0.8574 0.4950 -0.1411
vn -0.1733 0.9827 0.0658
vn -0.1732 0.9823 -0.0706
vn -0.0602 0.9974 0.0396
vn -0.0602 0.9982 -0.0003
vn 0.1735 -0.9840 -0.0396
vn 0.1736 -0.9848 0.0003
vn 0.5000 -0.8660 0.0024
usemtl Propeller
s 1
f 52/100/48 53/101/48 54/102/48
f 55/103/48 54/102/48 56/104/48
f 57/105/49 55/106/49 56/107/49
f 58/108/50 59/109/50 57/105/50
f 60/110/51 58/108/52 61/111/53
f 62/112/54 61/111/53 63/113/54
f 64/114/55 62/115/55 63/116/55
f 65/117/55 66/118/55 64/114/55
f 67/119/56 65/120/57 68/121/58
f 69/122/59 68/121/58 70/123/59
f 71/124/60 69/122/60 70/123/60
f 53/125/61 72/126/61 71/124/61
f 73/127/62 74/128/62 52/129/62
f 55/130/62 73/127/62 52/129/62
f 75/131/63 72/132/63 73/127/63
f 76/133/64 73/127/64 59/134/64
f 75/131/65 67/135/66 69/136/66
f 60/137/66 75/131/65 76/133/65
f 77/138/66 78/139/66 67/135/66
f 62/112/66 77/138/66 60/137/66
f 79/140/67 65/120/67 64/114/67
f 63/113/67 79/140/67 64/114/67
f 80/141/68 68/142/67 79/140/67
f 61/143/67 80/141/68 79/140/67
f 81/144/69 70/145/68 80/141/68
f 57/146/70 80/141/70 58/147/70
f 81/144/71 53/148/71 71/149/71
f 56/150/72 81/144/72 57/146/72
f 52/100/48 74/151/48 53/101/48
f 55/103/48 52/100/48 54/102/48
f 57/105/73 59/109/73 55/106/73
f 58/108/74 76/152/74 59/109/74
f 60/110/51 76/152/52 58/108/52
f 62/112/54 60/110/51 61/111/53
f 64/114/55 66/118/55 62/115/55
f 65/117/55 78/153/55 66/118/55
f 67/119/56 78/139/57 65/120/57
f 69/122/59 67/119/56 68/121/58
f 71/124/75 72/126/75 69/122/75
f 53/125/76 74/154/76 72/126/76
f 73/127/77 72/132/77 74/128/77
f 55/130/78 59/134/78 73/127/78
f 75/131/79 69/136/79 72/132/79
f 76/133/65 75/131/65 73/127/80
f 75/131/65 77/138/66 67/135/66
f 60/137/66 77/138/66 75/131/65
f 77/138/66 66/118/66 78/139/66
f 62/112/66 66/118/66 77/138/66
f 79/140/67 68/142/67 65/120/67
f 63/113/67 61/143/67 79/140/67
f 80/141/68 70/145/68 68/142/67
f 61/143/67 58/147/67 80/141/68
f 81/144/81 71/149/81 70/145/81
f 57/146/82 81/144/82 80/141/82
f 81/144/83 54/155/83 53/148/83
f 56/150/83 54/155/83 81/144/83
