# Blender v2.78 (sub 0) OBJ File: ''
# www.blender.org
mtllib test-propeller.mtl
o Cube.001
v -0.320333 3.425680 -0.278504
v -0.320333 3.525550 -0.220844
v -0.320333 3.381400 0.028831
v -0.320333 3.281530 -0.028829
v -0.320333 3.237250 0.278506
v -0.320333 3.137380 0.220846
v -1.761833 3.300640 0.506873
v -1.761833 3.187072 0.486848
v -3.203332 3.358628 0.507082
v -3.203332 3.243518 0.500136
v -4.644832 3.369483 0.327222
v -4.644832 3.254372 0.320275
v -6.086331 3.379188 0.166398
v -6.086331 3.264078 0.159451
v -6.086331 3.389021 0.003474
v -6.086331 3.273910 -0.003473
v -6.086331 3.398853 -0.159451
v -6.086331 3.283742 -0.166397
v -4.644832 3.408558 -0.320275
v -4.644832 3.293448 -0.327221
v -3.203332 3.419413 -0.500135
v -3.203332 3.304302 -0.507082
v -1.761833 3.475859 -0.486847
v -1.761833 3.362291 -0.506872
v -1.761833 3.388249 0.010013
v -3.203332 3.389021 0.003474
v -4.644832 3.389021 0.003474
v -4.644832 3.273910 -0.003473
v -3.203332 3.273910 -0.003473
v -1.761833 3.274681 -0.010012
v 0.256267 3.425680 0.278506
v 0.256267 3.525550 0.220846
v 0.256267 3.381400 -0.028829
v 0.256267 3.281530 0.028831
v 0.256267 3.237250 -0.278504
v 0.256267 3.137380 -0.220845
v 1.697766 3.300640 -0.506872
v 1.697766 3.187072 -0.486847
v 3.139265 3.358628 -0.507081
v 3.139265 3.243518 -0.500134
v 4.580765 3.369483 -0.327221
v 4.580765 3.254372 -0.320274
v 6.022264 3.379188 -0.166397
v 6.022264 3.264078 -0.159450
v 6.022264 3.389021 -0.003473
v 6.022264 3.273910 0.003474
v 6.022264 3.398853 0.159452
v 6.022264 3.283742 0.166398
v 4.580765 3.408558 0.320276
v 4.580765 3.293448 0.327222
v 3.139265 3.419413 0.500136
v 3.139265 3.304302 0.507083
v 1.697766 3.475859 0.486848
v 1.697766 3.362291 0.506873
v 1.697766 3.388249 -0.010012
v 3.139265 3.389021 -0.003473
v 4.580765 3.389021 -0.003473
v 4.580765 3.273910 0.003474
v 3.139265 3.273910 0.003474
v 1.697766 3.274681 0.010013
vt 0.0000 1.0000
vt 0.5000 0.0000
vt 0.0000 0.0000
vt 0.5000 1.0000
vt 1.0000 0.0000
vt 0.0000 1.0000
vt 0.2500 0.0000
vt 0.0000 0.0000
vt 0.2500 1.0000
vt 0.5000 0.0000
vt 0.7500 1.0000
vt 0.7500 0.0000
vt 1.0000 1.0000
vt 1.0000 0.0000
vt 0.0000 1.0000
vt 0.5000 0.0000
vt 0.0000 0.0000
vt 0.5000 1.0000
vt 1.0000 0.0000
vt 0.0000 1.0000
vt 0.2500 0.0000
vt 0.0000 0.0000
vt 0.2500 1.0000
vt 0.5000 0.0000
vt 0.5000 1.0000
vt 0.7500 0.0000
vt 0.7500 1.0000
vt 1.0000 0.0000
vt 0.0000 0.0000
vt 0.5000 0.2500
vt 0.5000 0.0000
vt 1.0000 0.0000
vt 0.0000 0.2500
vt 0.5000 0.5000
vt 1.0000 0.5000
vt 1.0000 0.2500
vt 0.0000 0.7500
vt 0.0000 0.5000
vt 1.0000 0.7500
vt 0.5000 0.7500
vt 0.5000 0.2500
vt 0.0000 0.2500
vt 0.5000 0.5000
vt 1.0000 0.2500
vt 0.0000 0.5000
vt 0.5000 0.7500
vt 1.0000 0.7500
vt 1.0000 0.5000
vt 0.0000 1.0000
vt 0.0000 0.7500
vt 1.0000 1.0000
vt 0.0000 1.0000
vt 0.5000 0.0000
vt 0.0000 0.0000
vt 0.5000 1.0000
vt 1.0000 0.0000
vt 0.0000 1.0000
vt 0.2500 0.0000
vt 0.0000 0.0000
vt 0.2500 1.0000
vt 0.5000 0.0000
vt 0.5000 1.0000
vt 0.7500 0.0000
vt 0.7500 1.0000
vt 1.0000 0.0000
vt 0.0000 1.0000
vt 0.5000 0.0000
vt 0.0000 0.0000
vt 1.0000 1.0000
vt 1.0000 0.0000
vt 0.0000 0.0000
vt 0.2500 1.0000
vt 0.2500 0.0000
vt 0.5000 0.0000
vt 0.5000 1.0000
vt 0.7500 0.0000
vt 0.7500 1.0000
vt 1.0000 0.0000
vt 0.0000 0.0000
vt 0.5000 0.2500
vt 0.5000 0.0000
vt 1.0000 0.0000
vt 0.0000 0.2500
vt 0.5000 0.5000
vt 1.0000 0.5000
vt 1.0000 0.2500
vt 0.0000 0.7500
vt 0.0000 0.5000
vt 1.0000 0.7500
vt 0.0000 1.0000
vt 0.5000 0.7500
vt 1.0000 1.0000
vt 0.5000 0.2500
vt 0.0000 0.2500
vt 0.5000 0.5000
vt 1.0000 0.2500
vt 0.0000 0.5000
vt 0.5000 0.7500
vt 1.0000 0.7500
vt 1.0000 0.5000
vt 0.0000 1.0000
vt 0.0000 0.7500
vt 1.0000 1.0000
vt 1.0000 1.0000
vt 0.5000 1.0000
vt 1.0000 1.0000
vt 1.0000 1.0000
vt 0.5000 1.0000
vt 1.0000 1.0000
vt 0.5000 1.0000
vt 1.0000 1.0000
vt 0.5000 1.0000
vn 1.0000 0.0000 0.0000
vn 0.1411 -0.4950 0.8574
vn 0.0023 -0.1736 0.9848
vn -0.1240 -0.0598 0.9905
vn -0.1111 -0.0599 0.9920
vn -1.0000 0.0000 0.0000
vn -0.1111 0.0599 -0.9920
vn -0.1240 0.0598 -0.9905
vn -0.0023 0.0602 -0.9982
vn 0.1468 0.1718 -0.9741
vn -0.0024 0.8660 0.5000
vn -0.0003 0.9848 0.1736
vn 0.0396 0.9840 0.1735
vn -0.0000 0.9982 0.0602
vn 0.0000 -0.9982 -0.0602
vn 0.0003 -0.9982 -0.0602
vn -0.0396 -0.9974 -0.0602
vn 0.0706 -0.9823 -0.1732
vn -0.0658 -0.9827 -0.1733
vn -0.1411 -0.4950 -0.8574
vn -0.0023 -0.1736 -0.9848
vn 0.1240 -0.0598 -0.9905
vn 0.1111 -0.0599 -0.9920
vn 0.1111 0.0599 0.9920
vn 0.1240 0.0598 0.9905
vn 0.0023 0.0602 0.9982
vn -0.1468 0.1718 0.9741
vn 0.0024 0.8660 -0.5000
vn 0.0003 0.9848 -0.1736
vn -0.0396 0.9840 -0.1735
vn 0.0000 0.9982 -0.0602
vn -0.0000 -0.9982 0.0602
vn -0.0003 -0.9982 0.0602
vn 0.0396 -0.9974 0.0602
vn -0.0706 -0.9823 0.1732
vn 0.0658 -0.9827 0.1733
vn 0.1468 -0.1718 0.9741
vn -0.0023 -0.0602 0.9982
vn 0.0023 0.1736 -0.9848
vn 0.1411 0.4950 -0.8574
vn -0.0658 0.9827 0.1733
vn 0.0706 0.9823 0.1732
vn -0.0396 0.9974 0.0602
vn 0.0003 0.9982 0.0602
vn 0.0396 -0.9840 -0.1735
vn -0.0003 -0.9848 -0.1736
vn -0.0024 -0.8660 -0.5000
vn -0.1468 -0.1718 -0.9741
vn 0.0023 -0.0602 -0.9982
vn -0.0023 0.1736 0.9848
vn -0.1411 0.4950 0.8574
vn 0.0658 0.9827 -0.1733
vn -0.0706 0.9823 -0.1732
vn 0.0396 0.9974 -0.0602
vn -0.0003 0.9982 -0.0602
vn -0.0396 -0.9840 0.1735
vn 0.0003 -0.9848 0.1736
vn 0.0024 -0.8660 0.5000
usemtl Propeller
s off
f 2/1/1 4/2/1 1/3/1
f 3/4/1 6/5/1 4/2/1
f 5/6/2 8/7/2 6/8/2
f 7/9/3 10/10/3 8/7/3
f 10/10/4 11/11/4 12/12/4
f 12/12/5 13/13/5 14/14/5
f 13/15/6 16/16/6 14/17/6
f 15/18/6 18/19/6 16/16/6
f 17/20/7 20/21/7 18/22/7
f 19/23/8 22/24/8 20/21/8
f 21/25/9 24/26/9 22/24/9
f 23/27/10 1/28/10 24/26/10
f 2/29/11 25/30/11 3/31/11
f 25/30/11 5/32/11 3/31/11
f 23/33/12 26/34/12 25/30/12
f 25/30/13 9/35/13 7/36/13
f 19/37/14 26/34/14 21/38/14
f 26/34/14 11/39/14 9/35/14
f 17/20/14 27/40/14 19/37/14
f 27/40/14 13/13/14 11/39/14
f 18/22/15 28/41/15 16/16/15
f 28/41/15 14/14/15 16/16/15
f 20/42/15 29/43/15 28/41/15
f 29/43/15 12/44/15 28/41/15
f 22/45/16 30/46/16 29/43/16
f 29/43/17 8/47/17 10/48/17
f 1/49/18 30/46/18 24/50/18
f 30/46/19 6/51/19 8/47/19
f 32/52/6 34/53/6 31/54/6
f 33/55/6 36/56/6 34/53/6
f 35/57/20 38/58/20 36/59/20
f 37/60/21 40/61/21 38/58/21
f 39/62/22 42/63/22 40/61/22
f 41/64/23 44/65/23 42/63/23
f 43/66/1 46/67/1 44/68/1
f 46/67/1 47/69/1 48/70/1
f 48/71/24 49/72/24 50/73/24
f 49/72/25 52/74/25 50/73/25
f 51/75/26 54/76/26 52/74/26
f 53/77/27 31/78/27 54/76/27
f 32/79/28 55/80/28 33/81/28
f 55/80/28 35/82/28 33/81/28
f 53/83/29 56/84/29 55/80/29
f 55/80/30 39/85/30 37/86/30
f 49/87/31 56/84/31 51/88/31
f 56/84/31 41/89/31 39/85/31
f 47/90/31 57/91/31 49/87/31
f 57/91/31 43/92/31 41/89/31
f 48/71/32 58/93/32 46/67/32
f 58/93/32 44/65/32 46/67/32
f 50/94/32 59/95/32 58/93/32
f 59/95/32 42/96/32 58/93/32
f 52/97/33 60/98/33 59/95/33
f 59/95/34 38/99/34 40/100/34
f 31/101/35 60/98/35 54/102/35
f 60/98/36 36/103/36 38/99/36
f 2/1/1 3/4/1 4/2/1
f 3/4/1 5/104/1 6/5/1
f 5/6/37 7/9/37 8/7/37
f 7/9/38 9/105/38 10/10/38
f 10/10/4 9/105/4 11/11/4
f 12/12/5 11/11/5 13/13/5
f 13/15/6 15/18/6 16/16/6
f 15/18/6 17/106/6 18/19/6
f 17/20/7 19/23/7 20/21/7
f 19/23/8 21/25/8 22/24/8
f 21/25/39 23/27/39 24/26/39
f 23/27/40 2/107/40 1/28/40
f 2/29/41 23/33/41 25/30/41
f 25/30/42 7/36/42 5/32/42
f 23/33/43 21/38/43 26/34/43
f 25/30/44 26/34/44 9/35/44
f 19/37/14 27/40/14 26/34/14
f 26/34/14 27/40/14 11/39/14
f 17/20/14 15/18/14 27/40/14
f 27/40/14 15/18/14 13/13/14
f 18/22/15 20/42/15 28/41/15
f 28/41/15 12/44/15 14/14/15
f 20/42/15 22/45/15 29/43/15
f 29/43/15 10/48/15 12/44/15
f 22/45/45 24/50/45 30/46/45
f 29/43/46 30/46/46 8/47/46
f 1/49/47 4/108/47 30/46/47
f 30/46/47 4/108/47 6/51/47
f 32/52/6 33/55/6 34/53/6
f 33/55/6 35/109/6 36/56/6
f 35/57/48 37/60/48 38/58/48
f 37/60/49 39/62/49 40/61/49
f 39/62/22 41/64/22 42/63/22
f 41/64/23 43/92/23 44/65/23
f 43/66/1 45/110/1 46/67/1
f 46/67/1 45/110/1 47/69/1
f 48/71/24 47/90/24 49/72/24
f 49/72/25 51/75/25 52/74/25
f 51/75/50 53/77/50 54/76/50
f 53/77/51 32/111/51 31/78/51
f 32/79/52 53/83/52 55/80/52
f 55/80/53 37/86/53 35/82/53
f 53/83/54 51/88/54 56/84/54
f 55/80/55 56/84/55 39/85/55
f 49/87/31 57/91/31 56/84/31
f 56/84/31 57/91/31 41/89/31
f 47/90/31 45/110/31 57/91/31
f 57/91/31 45/110/31 43/92/31
f 48/71/32 50/94/32 58/93/32
f 58/93/32 42/96/32 44/65/32
f 50/94/32 52/97/32 59/95/32
f 59/95/32 40/100/32 42/96/32
f 52/97/56 54/102/56 60/98/56
f 59/95/57 60/98/57 38/99/57
f 31/101/58 34/112/58 60/98/58
f 60/98/58 34/112/58 36/103/58
